<svg xmlns="http://www.w3.org/2000/svg" viewBox="0 0 111.72 93.43"><defs><style>.cls-1{fill:#fff;}</style></defs><title>DoIt_logo_white</title><g id="Layer_2" data-name="Layer 2"><g id="Layer_1-2" data-name="Layer 1"><path class="cls-1" d="M20.87,7.78c13-1.39,20.78,5.48,19.78,17.56S30.41,46.17,17.09,47.6L0,49.43,3.28,9.67Zm-7,30,4.89-.52c4.72-.51,8.07-4.58,8.55-10.42s-2.51-9.4-7.57-8.86l-4.27.46Z"/><path class="cls-1" d="M86.75,20.4c-1,11.8-10.8,21.45-23.33,22.8S42.49,36.89,43.46,25,54.24,3.81,66.78,2.47,87.72,8.66,86.75,20.4ZM56.84,23.66c-.45,5.45,3.15,9.05,7.65,8.57s8.43-4.89,8.87-10.34-2.82-9-7.32-8.49S57.29,18.22,56.84,23.66Z"/><path class="cls-1" d="M28,93.43,31.3,53.67l13-1.4L41.07,92Z"/><path class="cls-1" d="M73.34,59.45,70.92,88.83l-13,1.4L60.3,60.85l-11.19,1.2L50,51.67l35.47-3.81-.85,10.38Z"/><path class="cls-1" d="M91.43,67.73l4-66L111.72,0l-7.25,66.33Z"/><path class="cls-1" d="M90.52,79.27c-.37,4.5,2.61,7.48,6.33,7.08s7-4,7.34-8.55-2.34-7.42-6.06-7S90.89,74.76,90.52,79.27Z"/></g></g></svg>